<?xml version="1.0" encoding="utf-8" standalone="no"?>
<!DOCTYPE svg PUBLIC "-//W3C//DTD SVG 1.1//EN"
  "http://www.w3.org/Graphics/SVG/1.1/DTD/svg11.dtd">
<svg xmlns:xlink="http://www.w3.org/1999/xlink" width="504pt" height="345.6pt" viewBox="0 0 504 345.6" xmlns="http://www.w3.org/2000/svg" version="1.1">
 <metadata>
  <rdf:RDF xmlns:dc="http://purl.org/dc/elements/1.1/" xmlns:cc="http://creativecommons.org/ns#" xmlns:rdf="http://www.w3.org/1999/02/22-rdf-syntax-ns#">
   <cc:Work>
    <dc:type rdf:resource="http://purl.org/dc/dcmitype/StillImage"/>
    <dc:date>2026-08-03T12:47:00.208159</dc:date>
    <dc:format>image/svg+xml</dc:format>
    <dc:creator>
     <cc:Agent>
      <dc:title>Matplotlib v3.7.2, https://matplotlib.org/</dc:title>
     </cc:Agent>
    </dc:creator>
   </cc:Work>
  </rdf:RDF>
 </metadata>
 <defs>
  <style type="text/css">*{stroke-linejoin: round; stroke-linecap: butt}</style>
 </defs>
 <g id="figure_1">
  <g id="patch_1">
   <path d="M 0 345.6 
L 504 345.6 
L 504 0 
L 0 0 
L 0 345.6 
z
" style="fill: none"/>
  </g>
  <g id="axes_1">
   <g id="patch_2">
    <path d="M 68.04 281.664 
L 493.92 281.664 
L 493.92 74.304 
L 68.04 74.304 
L 68.04 281.664 
z
" style="fill: none"/>
   </g>
   <g id="matplotlib.axis_1">
    <g id="xtick_1">
     <g id="line2d_1"/>
     <g id="text_1">
      <text style="fill: #5c5c5c; font: 16px 'DejaVu Sans', sans-serif; text-anchor: middle" x="87.398182" y="301.8215" transform="rotate(-0 87.398182 301.8215)">0</text>
     </g>
    </g>
    <g id="xtick_2">
     <g id="line2d_2"/>
     <g id="text_2">
      <text style="fill: #5c5c5c; font: 16px 'DejaVu Sans', sans-serif; text-anchor: middle" x="184.189091" y="301.8215" transform="rotate(-0 184.189091 301.8215)">15</text>
     </g>
    </g>
    <g id="xtick_3">
     <g id="line2d_3"/>
     <g id="text_3">
      <text style="fill: #5c5c5c; font: 16px 'DejaVu Sans', sans-serif; text-anchor: middle" x="280.98" y="301.8215" transform="rotate(-0 280.98 301.8215)">30</text>
     </g>
    </g>
    <g id="xtick_4">
     <g id="line2d_4"/>
     <g id="text_4">
      <text style="fill: #5c5c5c; font: 16px 'DejaVu Sans', sans-serif; text-anchor: middle" x="377.770909" y="301.8215" transform="rotate(-0 377.770909 301.8215)">45</text>
     </g>
    </g>
    <g id="xtick_5">
     <g id="line2d_5"/>
     <g id="text_5">
      <text style="fill: #5c5c5c; font: 16px 'DejaVu Sans', sans-serif; text-anchor: middle" x="474.561818" y="301.8215" transform="rotate(-0 474.561818 301.8215)">60+</text>
     </g>
    </g>
    <g id="text_6">
     <text style="fill: #5c5c5c; font: 17px 'DejaVu Sans', sans-serif; text-anchor: middle" x="280.98" y="322.066344" transform="rotate(-0 280.98 322.066344)">commit to hardware verdict (minutes)</text>
    </g>
   </g>
   <g id="matplotlib.axis_2">
    <g id="ytick_1">
     <g id="line2d_6">
      <path d="M 68.04 281.664 
L 493.92 281.664 
" clip-path="url(#p9c83be4c83)" style="fill: none; stroke: #e1e0d9; stroke-width: 1.2; stroke-linecap: square"/>
     </g>
     <g id="line2d_7"/>
     <g id="text_7">
      <text style="fill: #5c5c5c; font: 16px 'DejaVu Sans', sans-serif; text-anchor: end" x="60.04" y="287.74275" transform="rotate(-0 60.04 287.74275)">0</text>
     </g>
    </g>
    <g id="ytick_2">
     <g id="line2d_8">
      <path d="M 68.04 227.260222 
L 493.92 227.260222 
" clip-path="url(#p9c83be4c83)" style="fill: none; stroke: #e1e0d9; stroke-width: 1.2; stroke-linecap: square"/>
     </g>
     <g id="line2d_9"/>
     <g id="text_8">
      <text style="fill: #5c5c5c; font: 16px 'DejaVu Sans', sans-serif; text-anchor: end" x="60.04" y="233.338972" transform="rotate(-0 60.04 233.338972)">20</text>
     </g>
    </g>
    <g id="ytick_3">
     <g id="line2d_10">
      <path d="M 68.04 172.856444 
L 493.92 172.856444 
" clip-path="url(#p9c83be4c83)" style="fill: none; stroke: #e1e0d9; stroke-width: 1.2; stroke-linecap: square"/>
     </g>
     <g id="line2d_11"/>
     <g id="text_9">
      <text style="fill: #5c5c5c; font: 16px 'DejaVu Sans', sans-serif; text-anchor: end" x="60.04" y="178.935194" transform="rotate(-0 60.04 178.935194)">40</text>
     </g>
    </g>
    <g id="ytick_4">
     <g id="line2d_12">
      <path d="M 68.04 118.452666 
L 493.92 118.452666 
" clip-path="url(#p9c83be4c83)" style="fill: none; stroke: #e1e0d9; stroke-width: 1.2; stroke-linecap: square"/>
     </g>
     <g id="line2d_13"/>
     <g id="text_10">
      <text style="fill: #5c5c5c; font: 16px 'DejaVu Sans', sans-serif; text-anchor: end" x="60.04" y="124.531416" transform="rotate(-0 60.04 124.531416)">60</text>
     </g>
    </g>
    <g id="text_11">
     <text style="fill: #5c5c5c; font: 17px 'DejaVu Sans', sans-serif; text-anchor: middle" x="32.144531" y="177.984" transform="rotate(-90 32.144531 177.984)">pipeline runs</text>
    </g>
   </g>
   <g id="patch_3">
    <path d="M 87.398182 281.664 
L 106.756364 281.664 
L 106.756364 213.659277 
L 87.398182 213.659277 
z
" clip-path="url(#p9c83be4c83)" style="fill: #007096; stroke: #ffffff; stroke-width: 2; stroke-linejoin: miter"/>
   </g>
   <g id="patch_4">
    <path d="M 106.756364 281.664 
L 126.114545 281.664 
L 126.114545 164.695877 
L 106.756364 164.695877 
z
" clip-path="url(#p9c83be4c83)" style="fill: #007096; stroke: #ffffff; stroke-width: 2; stroke-linejoin: miter"/>
   </g>
   <g id="patch_5">
    <path d="M 126.114545 281.664 
L 145.472727 281.664 
L 145.472727 197.338144 
L 126.114545 197.338144 
z
" clip-path="url(#p9c83be4c83)" style="fill: #007096; stroke: #ffffff; stroke-width: 2; stroke-linejoin: miter"/>
   </g>
   <g id="patch_6">
    <path d="M 145.472727 281.664 
L 164.830909 281.664 
L 164.830909 183.7372 
L 145.472727 183.7372 
z
" clip-path="url(#p9c83be4c83)" style="fill: #007096; stroke: #ffffff; stroke-width: 2; stroke-linejoin: miter"/>
   </g>
   <g id="patch_7">
    <path d="M 164.830909 281.664 
L 184.189091 281.664 
L 184.189091 246.301544 
L 164.830909 246.301544 
z
" clip-path="url(#p9c83be4c83)" style="fill: #007096; stroke: #ffffff; stroke-width: 2; stroke-linejoin: miter"/>
   </g>
   <g id="patch_8">
    <path d="M 184.189091 281.664 
L 203.547273 281.664 
L 203.547273 243.581355 
L 184.189091 243.581355 
z
" clip-path="url(#p9c83be4c83)" style="fill: #007096; stroke: #ffffff; stroke-width: 2; stroke-linejoin: miter"/>
   </g>
   <g id="patch_9">
    <path d="M 203.547273 281.664 
L 222.905455 281.664 
L 222.905455 229.980411 
L 203.547273 229.980411 
z
" clip-path="url(#p9c83be4c83)" style="fill: #007096; stroke: #ffffff; stroke-width: 2; stroke-linejoin: miter"/>
   </g>
   <g id="patch_10">
    <path d="M 222.905455 281.664 
L 242.263636 281.664 
L 242.263636 132.05361 
L 222.905455 132.05361 
z
" clip-path="url(#p9c83be4c83)" style="fill: #007096; stroke: #ffffff; stroke-width: 2; stroke-linejoin: miter"/>
   </g>
   <g id="patch_11">
    <path d="M 242.263636 281.664 
L 261.621818 281.664 
L 261.621818 240.861166 
L 242.263636 240.861166 
z
" clip-path="url(#p9c83be4c83)" style="fill: #007096; stroke: #ffffff; stroke-width: 2; stroke-linejoin: miter"/>
   </g>
   <g id="patch_12">
    <path d="M 261.621818 281.664 
L 280.98 281.664 
L 280.98 246.301544 
L 261.621818 246.301544 
z
" clip-path="url(#p9c83be4c83)" style="fill: #007096; stroke: #ffffff; stroke-width: 2; stroke-linejoin: miter"/>
   </g>
   <g id="patch_13">
    <path d="M 280.98 281.664 
L 300.338182 281.664 
L 300.338182 249.021733 
L 280.98 249.021733 
z
" clip-path="url(#p9c83be4c83)" style="fill: #007096; stroke: #ffffff; stroke-width: 2; stroke-linejoin: miter"/>
   </g>
   <g id="patch_14">
    <path d="M 300.338182 281.664 
L 319.696364 281.664 
L 319.696364 268.063055 
L 300.338182 268.063055 
z
" clip-path="url(#p9c83be4c83)" style="fill: #007096; stroke: #ffffff; stroke-width: 2; stroke-linejoin: miter"/>
   </g>
   <g id="patch_15">
    <path d="M 319.696364 281.664 
L 339.054545 281.664 
L 339.054545 270.783244 
L 319.696364 270.783244 
z
" clip-path="url(#p9c83be4c83)" style="fill: #007096; stroke: #ffffff; stroke-width: 2; stroke-linejoin: miter"/>
   </g>
   <g id="patch_16">
    <path d="M 339.054545 281.664 
L 358.412727 281.664 
L 358.412727 268.063055 
L 339.054545 268.063055 
z
" clip-path="url(#p9c83be4c83)" style="fill: #007096; stroke: #ffffff; stroke-width: 2; stroke-linejoin: miter"/>
   </g>
   <g id="patch_17">
    <path d="M 358.412727 281.664 
L 377.770909 281.664 
L 377.770909 270.783244 
L 358.412727 270.783244 
z
" clip-path="url(#p9c83be4c83)" style="fill: #007096; stroke: #ffffff; stroke-width: 2; stroke-linejoin: miter"/>
   </g>
   <g id="patch_18">
    <path d="M 377.770909 281.664 
L 397.129091 281.664 
L 397.129091 276.223622 
L 377.770909 276.223622 
z
" clip-path="url(#p9c83be4c83)" style="fill: #007096; stroke: #ffffff; stroke-width: 2; stroke-linejoin: miter"/>
   </g>
   <g id="patch_19">
    <path d="M 397.129091 281.664 
L 416.487273 281.664 
L 416.487273 278.943811 
L 397.129091 278.943811 
z
" clip-path="url(#p9c83be4c83)" style="fill: #007096; stroke: #ffffff; stroke-width: 2; stroke-linejoin: miter"/>
   </g>
   <g id="patch_20">
    <path d="M 416.487273 281.664 
L 435.845455 281.664 
L 435.845455 278.943811 
L 416.487273 278.943811 
z
" clip-path="url(#p9c83be4c83)" style="fill: #007096; stroke: #ffffff; stroke-width: 2; stroke-linejoin: miter"/>
   </g>
   <g id="patch_21">
    <path d="M 435.845455 281.664 
L 455.203636 281.664 
L 455.203636 278.943811 
L 435.845455 278.943811 
z
" clip-path="url(#p9c83be4c83)" style="fill: #007096; stroke: #ffffff; stroke-width: 2; stroke-linejoin: miter"/>
   </g>
   <g id="patch_22">
    <path d="M 455.203636 281.664 
L 474.561818 281.664 
L 474.561818 232.7006 
L 455.203636 232.7006 
z
" clip-path="url(#p9c83be4c83)" style="fill: #007096; stroke: #ffffff; stroke-width: 2; stroke-linejoin: miter"/>
   </g>
   <g id="patch_23">
    <path d="M 68.04 281.664 
L 68.04 74.304 
" style="fill: none; stroke: #c3c2b7; stroke-width: 1.2; stroke-linejoin: miter; stroke-linecap: square"/>
   </g>
   <g id="patch_24">
    <path d="M 68.04 281.664 
L 493.92 281.664 
" style="fill: none; stroke: #c3c2b7; stroke-width: 1.2; stroke-linejoin: miter; stroke-linecap: square"/>
   </g>
   <g id="text_12">
    <text style="fill: #266725; font: 700 19px 'DejaVu Sans', sans-serif" transform="translate(213.826545 91.882849)">median</text>
    <text style="fill: #266725; font: 700 19px 'DejaVu Sans', sans-serif" transform="translate(213.826545 113.158693)">18 min</text>
   </g>
   <g id="line2d_14">
    <path d="M 201.826545 281.664 
L 201.826545 74.304 
" clip-path="url(#p9c83be4c83)" style="fill: none; stroke: #266725; stroke-width: 3; stroke-linecap: square"/>
   </g>
  </g>
  <g id="text_13">
   <text style="fill: #501214; font: 700 21px 'DejaVu Sans', sans-serif; text-anchor: start" x="6.048" y="28.052719" transform="rotate(-0 6.048 28.052719)">Hardware feedback in minutes, not days</text>
  </g>
  <g id="text_14">
   <text style="fill: #5c5c5c; font: 16px 'DejaVu Sans', sans-serif; text-anchor: start" x="6.048" y="49.1367" transform="rotate(-0 6.048 49.1367)">317 runs  ·  2026-05-19 – 2026-08-01</text>
  </g>
 </g>
 <defs>
  <clipPath id="p9c83be4c83">
   <rect x="68.04" y="74.304" width="425.88" height="207.36"/>
  </clipPath>
 </defs>
</svg>
