<?xml version="1.0" encoding="utf-8" standalone="no"?>
<!DOCTYPE svg PUBLIC "-//W3C//DTD SVG 1.1//EN"
  "http://www.w3.org/Graphics/SVG/1.1/DTD/svg11.dtd">
<svg xmlns:xlink="http://www.w3.org/1999/xlink" width="504pt" height="345.6pt" viewBox="0 0 504 345.6" xmlns="http://www.w3.org/2000/svg" version="1.1">
 <metadata>
  <rdf:RDF xmlns:dc="http://purl.org/dc/elements/1.1/" xmlns:cc="http://creativecommons.org/ns#" xmlns:rdf="http://www.w3.org/1999/02/22-rdf-syntax-ns#">
   <cc:Work>
    <dc:type rdf:resource="http://purl.org/dc/dcmitype/StillImage"/>
    <dc:date>2026-08-03T12:53:03.160212</dc:date>
    <dc:format>image/svg+xml</dc:format>
    <dc:creator>
     <cc:Agent>
      <dc:title>Matplotlib v3.7.2, https://matplotlib.org/</dc:title>
     </cc:Agent>
    </dc:creator>
   </cc:Work>
  </rdf:RDF>
 </metadata>
 <defs>
  <style type="text/css">*{stroke-linejoin: round; stroke-linecap: butt}</style>
 </defs>
 <g id="figure_1">
  <g id="patch_1">
   <path d="M 0 345.6 
L 504 345.6 
L 504 0 
L 0 0 
L 0 345.6 
z
" style="fill: none"/>
  </g>
  <g id="axes_1">
   <g id="patch_2">
    <path d="M 151.2 290.304 
L 493.92 290.304 
L 493.92 82.944 
L 151.2 82.944 
L 151.2 290.304 
z
" style="fill: none"/>
   </g>
   <g id="matplotlib.axis_1">
    <g id="xtick_1">
     <g id="line2d_1">
      <path d="M 151.2 290.304 
L 151.2 82.944 
" clip-path="url(#pd2115c3aa1)" style="fill: none; stroke: #e1e0d9; stroke-width: 1.2; stroke-linecap: square"/>
     </g>
     <g id="line2d_2"/>
     <g id="text_1">
      <text style="fill: #5c5c5c; font: 16px 'DejaVu Sans', sans-serif; text-anchor: middle" x="151.2" y="310.4615" transform="rotate(-0 151.2 310.4615)">0</text>
     </g>
    </g>
    <g id="xtick_2">
     <g id="line2d_3">
      <path d="M 194.359198 290.304 
L 194.359198 82.944 
" clip-path="url(#pd2115c3aa1)" style="fill: none; stroke: #e1e0d9; stroke-width: 1.2; stroke-linecap: square"/>
     </g>
     <g id="line2d_4"/>
     <g id="text_2">
      <text style="fill: #5c5c5c; font: 16px 'DejaVu Sans', sans-serif; text-anchor: middle" x="194.359198" y="310.4615" transform="rotate(-0 194.359198 310.4615)">2</text>
     </g>
    </g>
    <g id="xtick_3">
     <g id="line2d_5">
      <path d="M 237.518396 290.304 
L 237.518396 82.944 
" clip-path="url(#pd2115c3aa1)" style="fill: none; stroke: #e1e0d9; stroke-width: 1.2; stroke-linecap: square"/>
     </g>
     <g id="line2d_6"/>
     <g id="text_3">
      <text style="fill: #5c5c5c; font: 16px 'DejaVu Sans', sans-serif; text-anchor: middle" x="237.518396" y="310.4615" transform="rotate(-0 237.518396 310.4615)">4</text>
     </g>
    </g>
    <g id="xtick_4">
     <g id="line2d_7">
      <path d="M 280.677595 290.304 
L 280.677595 82.944 
" clip-path="url(#pd2115c3aa1)" style="fill: none; stroke: #e1e0d9; stroke-width: 1.2; stroke-linecap: square"/>
     </g>
     <g id="line2d_8"/>
     <g id="text_4">
      <text style="fill: #5c5c5c; font: 16px 'DejaVu Sans', sans-serif; text-anchor: middle" x="280.677595" y="310.4615" transform="rotate(-0 280.677595 310.4615)">6</text>
     </g>
    </g>
    <g id="xtick_5">
     <g id="line2d_9">
      <path d="M 323.836793 290.304 
L 323.836793 82.944 
" clip-path="url(#pd2115c3aa1)" style="fill: none; stroke: #e1e0d9; stroke-width: 1.2; stroke-linecap: square"/>
     </g>
     <g id="line2d_10"/>
     <g id="text_5">
      <text style="fill: #5c5c5c; font: 16px 'DejaVu Sans', sans-serif; text-anchor: middle" x="323.836793" y="310.4615" transform="rotate(-0 323.836793 310.4615)">8</text>
     </g>
    </g>
    <g id="xtick_6">
     <g id="line2d_11">
      <path d="M 366.995991 290.304 
L 366.995991 82.944 
" clip-path="url(#pd2115c3aa1)" style="fill: none; stroke: #e1e0d9; stroke-width: 1.2; stroke-linecap: square"/>
     </g>
     <g id="line2d_12"/>
     <g id="text_6">
      <text style="fill: #5c5c5c; font: 16px 'DejaVu Sans', sans-serif; text-anchor: middle" x="366.995991" y="310.4615" transform="rotate(-0 366.995991 310.4615)">10</text>
     </g>
    </g>
    <g id="xtick_7">
     <g id="line2d_13">
      <path d="M 410.155189 290.304 
L 410.155189 82.944 
" clip-path="url(#pd2115c3aa1)" style="fill: none; stroke: #e1e0d9; stroke-width: 1.2; stroke-linecap: square"/>
     </g>
     <g id="line2d_14"/>
     <g id="text_7">
      <text style="fill: #5c5c5c; font: 16px 'DejaVu Sans', sans-serif; text-anchor: middle" x="410.155189" y="310.4615" transform="rotate(-0 410.155189 310.4615)">12</text>
     </g>
    </g>
    <g id="text_8">
     <text style="fill: #5c5c5c; font: 17px 'DejaVu Sans', sans-serif; text-anchor: middle" x="322.56" y="330.706344" transform="rotate(-0 322.56 330.706344)">median job duration (minutes)</text>
    </g>
   </g>
   <g id="matplotlib.axis_2">
    <g id="ytick_1">
     <g id="line2d_15"/>
     <g id="text_9">
      <text style="fill: #5c5c5c; font: 18px 'DejaVu Sans', sans-serif; text-anchor: end" x="143.2" y="109.30675" transform="rotate(-0 143.2 109.30675)">Lint</text>
     </g>
    </g>
    <g id="ytick_2">
     <g id="line2d_16"/>
     <g id="text_10">
      <text style="fill: #5c5c5c; font: 18px 'DejaVu Sans', sans-serif; text-anchor: end" x="143.2" y="142.969087" transform="rotate(-0 143.2 142.969087)">Unit tests</text>
     </g>
    </g>
    <g id="ytick_3">
     <g id="line2d_17"/>
     <g id="text_11">
      <text style="fill: #5c5c5c; font: 18px 'DejaVu Sans', sans-serif; text-anchor: end" x="143.2" y="176.631425" transform="rotate(-0 143.2 176.631425)">Build</text>
     </g>
    </g>
    <g id="ytick_4">
     <g id="line2d_18"/>
     <g id="text_12">
      <text style="fill: #5c5c5c; font: 18px 'DejaVu Sans', sans-serif; text-anchor: end" x="143.2" y="210.293763" transform="rotate(-0 143.2 210.293763)">YAMCS check</text>
     </g>
    </g>
    <g id="ytick_5">
     <g id="line2d_19"/>
     <g id="text_13">
      <text style="fill: #5c5c5c; font: 18px 'DejaVu Sans', sans-serif; text-anchor: end" x="143.2" y="243.9561" transform="rotate(-0 143.2 243.9561)">HIL: UART</text>
     </g>
    </g>
    <g id="ytick_6">
     <g id="line2d_20"/>
     <g id="text_14">
      <text style="fill: #5c5c5c; font: 18px 'DejaVu Sans', sans-serif; text-anchor: end" x="143.2" y="277.618438" transform="rotate(-0 143.2 277.618438)">HIL: Radio</text>
     </g>
    </g>
   </g>
   <g id="patch_3">
    <path d="M 151.2 92.369455 
L 163.42844 92.369455 
L 163.42844 112.566857 
L 151.2 112.566857 
z
" clip-path="url(#pd2115c3aa1)" style="fill: #007096; opacity: 0.22"/>
   </g>
   <g id="patch_4">
    <path d="M 151.2 126.031792 
L 200.473418 126.031792 
L 200.473418 146.229195 
L 151.2 146.229195 
z
" clip-path="url(#pd2115c3aa1)" style="fill: #007096; opacity: 0.22"/>
   </g>
   <g id="patch_5">
    <path d="M 151.2 159.69413 
L 256.580376 159.69413 
L 256.580376 179.891532 
L 151.2 179.891532 
z
" clip-path="url(#pd2115c3aa1)" style="fill: #007096; opacity: 0.22"/>
   </g>
   <g id="patch_6">
    <path d="M 151.2 193.356468 
L 159.83184 193.356468 
L 159.83184 213.55387 
L 151.2 213.55387 
z
" clip-path="url(#pd2115c3aa1)" style="fill: #007096; opacity: 0.22"/>
   </g>
   <g id="patch_7">
    <path d="M 151.2 227.018805 
L 324.556113 227.018805 
L 324.556113 247.216208 
L 151.2 247.216208 
z
" clip-path="url(#pd2115c3aa1)" style="fill: #419e69; opacity: 0.22"/>
   </g>
   <g id="patch_8">
    <path d="M 151.2 260.681143 
L 414.830769 260.681143 
L 414.830769 280.878545 
L 151.2 280.878545 
z
" clip-path="url(#pd2115c3aa1)" style="fill: #419e69; opacity: 0.22"/>
   </g>
   <g id="patch_9">
    <path d="M 151.2 92.369455 
L 161.63014 92.369455 
L 161.63014 112.566857 
L 151.2 112.566857 
z
" clip-path="url(#pd2115c3aa1)" style="fill: #007096"/>
   </g>
   <g id="patch_10">
    <path d="M 151.2 126.031792 
L 191.841578 126.031792 
L 191.841578 146.229195 
L 151.2 146.229195 
z
" clip-path="url(#pd2115c3aa1)" style="fill: #007096"/>
   </g>
   <g id="patch_11">
    <path d="M 151.2 159.69413 
L 233.202477 159.69413 
L 233.202477 179.891532 
L 151.2 179.891532 
z
" clip-path="url(#pd2115c3aa1)" style="fill: #007096"/>
   </g>
   <g id="patch_12">
    <path d="M 151.2 193.356468 
L 158.03354 193.356468 
L 158.03354 213.55387 
L 151.2 213.55387 
z
" clip-path="url(#pd2115c3aa1)" style="fill: #007096"/>
   </g>
   <g id="patch_13">
    <path d="M 151.2 227.018805 
L 290.028754 227.018805 
L 290.028754 247.216208 
L 151.2 247.216208 
z
" clip-path="url(#pd2115c3aa1)" style="fill: #419e69"/>
   </g>
   <g id="patch_14">
    <path d="M 151.2 260.681143 
L 359.083472 260.681143 
L 359.083472 280.878545 
L 151.2 280.878545 
z
" clip-path="url(#pd2115c3aa1)" style="fill: #419e69"/>
   </g>
   <g id="patch_15">
    <path d="M 151.2 290.304 
L 151.2 82.944 
" style="fill: none; stroke: #c3c2b7; stroke-width: 1.2; stroke-linejoin: miter; stroke-linecap: square"/>
   </g>
   <g id="patch_16">
    <path d="M 151.2 290.304 
L 493.92 290.304 
" style="fill: none; stroke: #c3c2b7; stroke-width: 1.2; stroke-linejoin: miter; stroke-linecap: square"/>
   </g>
   <g id="text_15">
    <text style="fill: #1a1a1a; font: 700 18px 'DejaVu Sans', sans-serif; text-anchor: start" x="171.337363" y="107.435031" transform="rotate(-0 171.337363 107.435031)">0.5</text>
   </g>
   <g id="text_16">
    <text style="fill: #1a1a1a; font: 700 18px 'DejaVu Sans', sans-serif; text-anchor: start" x="208.382341" y="141.097369" transform="rotate(-0 208.382341 141.097369)">1.9</text>
   </g>
   <g id="text_17">
    <text style="fill: #1a1a1a; font: 700 18px 'DejaVu Sans', sans-serif; text-anchor: start" x="264.489299" y="174.759706" transform="rotate(-0 264.489299 174.759706)">3.8</text>
   </g>
   <g id="text_18">
    <text style="fill: #1a1a1a; font: 700 18px 'DejaVu Sans', sans-serif; text-anchor: start" x="167.740763" y="208.422044" transform="rotate(-0 167.740763 208.422044)">0.3</text>
   </g>
   <g id="text_19">
    <text style="fill: #1a1a1a; font: 700 18px 'DejaVu Sans', sans-serif; text-anchor: start" x="332.465036" y="242.084381" transform="rotate(-0 332.465036 242.084381)">6.4</text>
   </g>
   <g id="text_20">
    <text style="fill: #1a1a1a; font: 700 18px 'DejaVu Sans', sans-serif; text-anchor: start" x="422.739692" y="275.746719" transform="rotate(-0 422.739692 275.746719)">9.6</text>
   </g>
  </g>
  <g id="text_21">
   <text style="fill: #501214; font: 700 21px 'DejaVu Sans', sans-serif; text-anchor: start" x="6.048" y="28.052719" transform="rotate(-0 6.048 28.052719)">Hardware testing dominates the pipeline</text>
  </g>
  <g id="text_22">
   <text style="fill: #5c5c5c; font: 16px 'DejaVu Sans', sans-serif; text-anchor: start" x="6.048" y="49.1367" transform="rotate(-0 6.048 49.1367)">solid bar = median, pale bar = 90th percentile</text>
  </g>
  <g id="legend_1">
   <g id="patch_17">
    <path d="M 21.348 78.329344 
L 40.048 78.329344 
L 40.048 66.429344 
L 21.348 66.429344 
z
" style="fill: #007096"/>
   </g>
   <g id="text_23">
    <text style="fill: #1a1a1a; font: 17px 'DejaVu Sans', sans-serif; text-anchor: start" x="53.648" y="78.329344" transform="rotate(-0 53.648 78.329344)">Software only</text>
   </g>
   <g id="patch_18">
    <path d="M 193.743938 78.329344 
L 212.443938 78.329344 
L 212.443938 66.429344 
L 193.743938 66.429344 
z
" style="fill: #419e69"/>
   </g>
   <g id="text_24">
    <text style="fill: #1a1a1a; font: 17px 'DejaVu Sans', sans-serif; text-anchor: start" x="226.043938" y="78.329344" transform="rotate(-0 226.043938 78.329344)">Hardware-in-the-Loop (HIL)</text>
   </g>
  </g>
 </g>
 <defs>
  <clipPath id="pd2115c3aa1">
   <rect x="151.2" y="82.944" width="342.72" height="207.36"/>
  </clipPath>
 </defs>
</svg>
